<?xml version="1.0" encoding="UTF-8" standalone="no"?>
<svg
   version="1.1"
   id="svg2"
   xml:space="preserve"
   viewBox="0 0 2296.1467 2019.0266"
   sodipodi:docname="vectorstock_30927215.svg"
   inkscape:version="1.1 (c68e22c387, 2021-05-23)"
   xmlns:inkscape="http://www.inkscape.org/namespaces/inkscape"
   xmlns:sodipodi="http://sodipodi.sourceforge.net/DTD/sodipodi-0.dtd"
   xmlns="http://www.w3.org/2000/svg"
   xmlns:svg="http://www.w3.org/2000/svg"
   xmlns:rdf="http://www.w3.org/1999/02/22-rdf-syntax-ns#"
   xmlns:cc="http://creativecommons.org/ns#"
   xmlns:dc="http://purl.org/dc/elements/1.1/"><metadata
     id="metadata8"><rdf:RDF><cc:Work
         rdf:about=""><dc:format>image/svg+xml</dc:format><dc:type
           rdf:resource="http://purl.org/dc/dcmitype/StillImage" /></cc:Work></rdf:RDF></metadata><defs
     id="defs6"><filter
       inkscape:label="Light Eraser"
       style="color-interpolation-filters:sRGB"
       id="filter20293"
       x="0"
       y="0"
       width="1"
       height="1"><feColorMatrix
         values="1 0 0 0 0 0 1 0 0 0 0 0 1 0 0 -21.25 -71.54 -7.21 50 0 "
         result="colormatrix"
         id="feColorMatrix20289" /><feComposite
         in2="colormatrix"
         operator="arithmetic"
         k2="1"
         result="fbSourceGraphic"
         id="feComposite20291"
         k1="0"
         k3="0"
         k4="0" /><feColorMatrix
         result="fbSourceGraphicAlpha"
         in="fbSourceGraphic"
         values="0 0 0 -1 0 0 0 0 -1 0 0 0 0 -1 0 0 0 0 1 0"
         id="feColorMatrix20314" /><feColorMatrix
         id="feColorMatrix20316"
         values="1 0 0 0 0 0 1 0 0 0 0 0 1 0 0 -21.25 -71.54 -7.21 50 0 "
         result="colormatrix"
         in="fbSourceGraphic" /><feComposite
         in2="colormatrix"
         id="feComposite20318"
         operator="arithmetic"
         k2="1"
         result="fbSourceGraphic"
         k1="0"
         k3="0"
         k4="0" /><feColorMatrix
         result="fbSourceGraphicAlpha"
         in="fbSourceGraphic"
         values="0 0 0 -1 0 0 0 0 -1 0 0 0 0 -1 0 0 0 0 1 0"
         id="feColorMatrix20339" /><feColorMatrix
         id="feColorMatrix20341"
         values="1 0 0 0 0 0 1 0 0 0 0 0 1 0 0 -21.25 -71.54 -7.21 50 0 "
         result="colormatrix"
         in="fbSourceGraphic" /><feComposite
         in2="colormatrix"
         id="feComposite20343"
         operator="arithmetic"
         k2="1"
         result="fbSourceGraphic"
         k1="0"
         k3="0"
         k4="0" /><feColorMatrix
         result="fbSourceGraphicAlpha"
         in="fbSourceGraphic"
         values="0 0 0 -1 0 0 0 0 -1 0 0 0 0 -1 0 0 0 0 1 0"
         id="feColorMatrix20364" /><feColorMatrix
         id="feColorMatrix20366"
         values="1 0 0 0 0 0 1 0 0 0 0 0 1 0 0 -21.25 -71.54 -7.21 50 0 "
         result="colormatrix"
         in="fbSourceGraphic" /><feComposite
         in2="colormatrix"
         id="feComposite20368"
         operator="arithmetic"
         k2="1"
         result="fbSourceGraphic"
         k1="0"
         k3="0"
         k4="0" /><feColorMatrix
         result="fbSourceGraphicAlpha"
         in="fbSourceGraphic"
         values="0 0 0 -1 0 0 0 0 -1 0 0 0 0 -1 0 0 0 0 1 0"
         id="feColorMatrix20389" /><feColorMatrix
         id="feColorMatrix20391"
         values="1 0 0 0 0 0 1 0 0 0 0 0 1 0 0 -21.25 -71.54 -7.21 50 0 "
         result="colormatrix"
         in="fbSourceGraphic" /><feComposite
         in2="colormatrix"
         id="feComposite20393"
         operator="arithmetic"
         k2="1"
         result="fbSourceGraphic"
         k1="0"
         k3="0"
         k4="0" /><feColorMatrix
         result="fbSourceGraphicAlpha"
         in="fbSourceGraphic"
         values="0 0 0 -1 0 0 0 0 -1 0 0 0 0 -1 0 0 0 0 1 0"
         id="feColorMatrix20414" /><feColorMatrix
         id="feColorMatrix20416"
         values="1 0 0 0 0 0 1 0 0 0 0 0 1 0 0 -21.25 -71.54 -7.21 50 0 "
         result="colormatrix"
         in="fbSourceGraphic" /><feComposite
         in2="colormatrix"
         id="feComposite20418"
         operator="arithmetic"
         k2="1"
         result="composite"
         k1="0"
         k3="0"
         k4="0" /></filter></defs><sodipodi:namedview
     pagecolor="#ffffff"
     bordercolor="#666666"
     borderopacity="1"
     objecttolerance="10"
     gridtolerance="10"
     guidetolerance="10"
     inkscape:pageopacity="0"
     inkscape:pageshadow="2"
     inkscape:window-width="1920"
     inkscape:window-height="1027"
     id="namedview4"
     inkscape:pagecheckerboard="1"
     showgrid="false"
     fit-margin-top="0"
     fit-margin-left="0"
     fit-margin-right="0"
     fit-margin-bottom="0"
     inkscape:zoom="0.13644407"
     inkscape:cx="1901.8782"
     inkscape:cy="1000.4099"
     inkscape:window-x="1912"
     inkscape:window-y="-8"
     inkscape:window-maximized="1"
     inkscape:current-layer="g12" /><g
     id="g10"
     inkscape:groupmode="layer"
     inkscape:label="ink_ext_XXXXXX"
     transform="matrix(1.3333333,0,0,-1.3333333,-2010.1733,4554.1466)"><g
       id="g12"
       transform="scale(0.1)"><path
         d="m 23686.891,34156.1 c 4755.358,0 8610.386,-3753 8610.386,-8382.6 0,-2692.8 -1304.423,-5088.7 -3331.471,-6622.4 H 18407.874 c -2027.048,1533.7 -3331.574,3929.6 -3331.574,6622.4 0,4629.6 3855.131,8382.6 8610.591,8382.6"
         style="fill:#f29f10;fill-opacity:1;fill-rule:evenodd;stroke:none;stroke-width:1.01351"
         id="path18" /><path
         d="m 15647.826,20153.4 h 17117.745 v -1140 H 15647.826 v 1140"
         style="fill:#bdb6d3;fill-opacity:1;fill-rule:evenodd;stroke:none;stroke-width:1.01351"
         id="path20" /><path
         d="m 22203.635,28954.2 c 463.569,206.3 893.96,468.8 1283.468,794.5 l 271.692,227.2 -45.299,-345.9 c -14.278,-108.8 -42.423,-210 -83.305,-306 471.068,156.5 904.643,381.9 1301.855,686.3 l 276.416,211.9 -55.16,-338.3 c -38.006,-233.2 -116.175,-444.6 -231.528,-637.8 268.301,128.6 517.188,289.8 746.662,485.6 l 206.362,176.3 21.776,-266.4 c 15.613,-190.9 66.767,-369.5 143.189,-539.2 37.698,94.6 91.318,184.3 160.139,268.9 l 76.936,94.5 104.773,-64.6 c 345.443,-212.9 602.034,-496.7 726.015,-875.8 217.969,-194.4 147.915,-547.8 11.504,-772.1 -138.156,-227 -434.294,-468.8 -723.241,-420.8 -579.539,-694.1 -1229.439,-1132.6 -2195.61,-1140.2 -978.292,-7.7 -1661.576,457.9 -2238.854,1164 -314.422,-121.2 -658.633,147.1 -810.758,397 -154.387,253.7 -216.942,677.3 101.794,833.5 l 3.903,3.5 c 305.896,273.9 584.675,575.9 821.646,908.7 l 390.228,547.9 -142.265,-652.2 c -32.254,-148.1 -72.109,-296.2 -122.338,-440.5"
         style="fill:#161a34;fill-opacity:1;fill-rule:evenodd;stroke:none;stroke-width:1.01351"
         id="path22" /><path
         d="m 26345.968,27486.4 c -487.606,-603.1 -1104.533,-1151.7 -2146.819,-1160 -1060.467,-8.4 -1714.886,580.5 -2204.033,1206.2 -20.133,-18.5 -43.347,-33.8 -69.643,-45.4 -196.912,-87.4 -490.789,62.4 -656.269,334.5 -165.582,272 -140.211,563.4 56.803,650.7 9.039,4.1 18.387,7.6 27.837,10.6 l -4.211,8.6 c 320.482,287 603.06,596.1 841.573,931 -57.625,-264.4 -135.383,-506 -239.129,-718 593.816,227 1138.533,535.8 1624.7,942.3 -28.863,-220.9 -120.694,-396 -241.902,-549.6 675.58,173.4 1221.837,454.8 1682.428,807.7 -61.939,-379.4 -237.178,-694.9 -514.107,-969.6 499.726,160.9 909.984,400.1 1256.043,695.5 28.247,-345.6 163.117,-651.7 352.736,-937.5 -12.635,212.7 47.251,411.8 195.884,594.5 374.204,-230.5 583.955,-516.3 679.997,-840.4 155.722,-109 164.967,-375.6 12.737,-625.8 -165.171,-271.4 -457.817,-421 -654.625,-335.3"
         style="fill:#faca9e;fill-opacity:1;fill-rule:evenodd;stroke:none;stroke-width:1.01351"
         id="path24" /><path
         d="m 21832.924,28772.9 c -124.085,-132 -254.537,-258.7 -390.023,-380 l -137.026,-122.7 -80.429,163.4 c -173.287,352 -263.885,733.2 -263.885,1123.6 0,1180.6 808.909,2144.1 1888.791,2580 -173.595,45.9 -345.238,61.8 -536.192,71.1 l -950.455,45.8 924.775,218.5 c 638.91,150.9 1357.734,218.7 1971.787,-54.1 335.992,255.5 768.541,320.9 1188.968,304.5 l 791.446,-30.8 -755.598,-231.1 c -135.897,-41.6 -257.515,-102.1 -365.678,-182.9 1280.387,-334.4 2317.228,-1378.3 2317.228,-2721 0,-427.4 -108.47,-842.5 -313.805,-1220 l -167.431,-307.9 -87.824,337.8 c -81.457,313.3 -265.426,549.7 -523.659,734.6 -71.288,-121.5 -103.13,-253.7 -94.399,-400.6 l 29.994,-507.6 -283.298,427.1 c -157.057,236.8 -277.237,486.3 -337.43,756.7 -335.377,-250.2 -706.601,-438.6 -1112.34,-569.2 l -540.094,-173.9 398.547,395.2 c 165.48,164 292.029,343.3 376.362,544.8 -432.549,-276.9 -903,-476.1 -1411.252,-606.6 l -390.124,-100.2 245.703,311.6 c 17.872,22.5 34.718,45.4 50.639,68.4 -393.515,-273.2 -820.207,-494.2 -1273.813,-667.6 l -324.796,-124.3 150.175,306.8 c 1.643,3.5 3.39,7.1 5.136,10.6"
         style="fill:#161a34;fill-opacity:1;fill-rule:evenodd;stroke:none;stroke-width:1.01351"
         id="path26" /><path
         d="m 24838.572,32203 c 1405.191,-257 2460.316,-1343.9 2460.316,-2645.8 0,-414.1 -106.93,-806.4 -297.679,-1157.2 -89.364,343.6 -300.965,646.1 -693.35,887.9 -148.633,-182.7 -208.519,-381.8 -195.884,-594.5 -189.619,285.8 -324.489,591.9 -352.736,937.5 -346.059,-295.4 -756.317,-534.6 -1256.043,-695.5 276.929,274.7 452.168,590.2 514.107,969.6 -460.591,-352.9 -1006.848,-634.3 -1682.428,-807.7 121.208,153.6 213.039,328.7 241.902,549.6 -486.167,-406.5 -1030.884,-715.3 -1624.7,-942.3 103.746,212 181.504,453.6 239.129,718 -238.513,-334.9 -521.091,-644 -841.573,-931 -160.96,327 -250.326,687.2 -250.326,1065.6 0,1205.3 904.437,2226.3 2153.598,2575.2 -250.016,104.2 -408.82,184.6 -931.965,209.8 747.38,176.5 1419.365,189.9 1959.459,-82.3 283.402,250.4 680.203,347.9 1163.391,329.1 -254.023,-77.7 -450.523,-211.4 -605.218,-386"
         style="fill:#4e1e16;fill-opacity:1;fill-rule:evenodd;stroke:none;stroke-width:1.01351"
         id="path28" /><path
         d="m 25175.592,28534.5 c 178.319,0 322.845,-178.2 322.845,-398.1 0,-219.9 -144.526,-398.2 -322.845,-398.2 -178.422,0 -322.947,178.3 -322.947,398.2 0,219.9 144.525,398.1 322.947,398.1"
         style="fill:#161a34;fill-opacity:1;fill-rule:evenodd;stroke:none;stroke-width:1.01351"
         id="path30" /><path
         d="m 25119.61,28421.4 c 68.925,0 124.803,-73.2 124.803,-163.5 0,-90.3 -55.878,-163.4 -124.803,-163.4 -68.924,0 -124.905,73.1 -124.905,163.4 0,90.3 55.981,163.5 124.905,163.5"
         style="fill:#f7fcfe;fill-opacity:1;fill-rule:evenodd;stroke:none;stroke-width:1.01351"
         id="path32" /><path
         d="m 24848.33,28756.8 c 355.612,21.3 650.415,-44.6 908.444,-163.5 -330.857,353 -531.261,342.2 -908.444,163.5"
         style="fill:#161a34;fill-opacity:1;fill-rule:evenodd;stroke:none;stroke-width:1.01351"
         id="path34" /><path
         d="m 23227.842,28534.5 c -178.319,0 -322.845,-178.2 -322.845,-398.1 0,-219.9 144.526,-398.2 322.845,-398.2 178.32,0 322.947,178.3 322.947,398.2 0,219.9 -144.627,398.1 -322.947,398.1"
         style="fill:#161a34;fill-opacity:1;fill-rule:evenodd;stroke:none;stroke-width:1.01351"
         id="path36" /><path
         d="m 23283.824,28421.4 c -69.027,0 -124.907,-73.2 -124.907,-163.5 0,-90.3 55.88,-163.4 124.907,-163.4 69.026,0 124.803,73.1 124.803,163.4 0,90.3 -55.777,163.5 -124.803,163.5"
         style="fill:#f7fcfe;fill-opacity:1;fill-rule:evenodd;stroke:none;stroke-width:1.01351"
         id="path38" /><path
         d="m 23555.104,28756.8 c -355.612,21.3 -650.517,-44.6 -908.443,-163.5 330.855,353 531.157,342.2 908.443,163.5"
         style="fill:#161a34;fill-opacity:1;fill-rule:evenodd;stroke:none;stroke-width:1.01351"
         id="path40" /><path
         d="m 23518.947,27307.3 1430.356,-21.6 c -84.743,-1025.3 -1488.495,-791.3 -1430.356,21.6"
         style="fill:#161a34;fill-opacity:1;fill-rule:evenodd;stroke:none;stroke-width:1.01351"
         id="path42" /><path
         d="m 24759.684,26886.6 c -273.95,-296 -771.621,-260.5 -1046.6,-2.9 69.85,88.7 278.266,153 524.379,153 243.546,0 450.113,-62.9 522.221,-150.1"
         style="fill:#d995cf;fill-opacity:1;fill-rule:evenodd;stroke:none;stroke-width:1.01351"
         id="path44" /><path
         d="m 24744.174,26870.5 c -243.135,-244.7 -646.614,-244.3 -924.057,-69.2 78.067,82.8 279.087,141.9 514.826,141.9 162.604,0 308.567,-28.1 409.231,-72.7"
         style="fill:#eb0480;fill-opacity:1;fill-rule:evenodd;stroke:none;stroke-width:1.01351"
         id="path46" /><path
         d="m 23197.335,26484.2 c 72.929,-34 117.407,-26.4 193.727,-52.4 l 88.235,-30 3.082,-44.6 c 16.024,-367.5 327.467,-657.5 705.369,-657.5 378.004,0 689.549,290.3 705.368,658 l 176.882,74.8 c 79.196,33.5 105.799,36.8 176.675,85 l 45.916,31.3 20.954,36.8 c 800.384,-164.8 1751.455,-580.3 2144.764,-1324.6 l 103.233,-195.5 h -6696.02 l 103.334,195.5 c 387.763,734 1319.216,1148.4 2108.197,1317 l 49.716,-67 70.568,-26.8"
         style="fill:#161a34;fill-opacity:1;fill-rule:evenodd;stroke:none;stroke-width:1.01351"
         id="path48" /><path
         d="m 25285.09,26454.4 c 974.902,-200.8 1740.567,-667.8 2050.674,-1254.7 h -6244.469 c 306.409,579.8 1057.283,1042.6 2015.236,1247.3 77.142,-35.8 156.441,-67.7 238.205,-95.6 19.208,-437.1 389.201,-785.8 843.012,-785.8 453.913,0 824.11,349 843.011,786.5 87.619,29.5 172.259,63.6 254.331,102.3"
         style="fill:#c81e25;fill-opacity:1;fill-rule:evenodd;stroke:none;stroke-width:1.01351"
         id="path50" /><path
         d="m 23438.004,25812.8 -0.924,1 -16.744,21.4 -13.352,18 -12.738,18 -12.223,18.4 -11.71,18.4 -12.121,20 -10.58,18.7 -10.888,20.1 -10.478,20.8 -8.936,19 -9.142,20.2 c -5.547,12.8 -10.786,25.7 -15.716,38.7 l -9.141,25.1 c -4.829,14 -9.245,28 -13.354,42.1 l -6.985,25.1 -5.444,22 -5.033,23.3 -4.315,22.5 -3.8,22.7 -3.39,24.1 -2.568,22.4 -1.952,21 c -0.616,7.7 -1.129,15.3 -1.541,22.9 l -6.471,166 152.64,-52 c 264.193,-89.8 538.554,-128.5 818.051,-126.3 271.486,2.1 538.554,40.4 795.556,127.1 l 152.947,51.4 -6.779,-157.4 c -21.468,-496.8 -442.306,-889.2 -953.125,-889.2 -216.839,0 -426.282,70.4 -595.254,203 l -16.025,12.7 -17.668,14.8 -8.422,7.2 -16.333,14.8 -6.985,6.3 -17.051,16.3 -16.333,16.5 -15.201,16 -9.759,10.8 -8.114,9.2 -12.122,14.1 -10.477,12.8"
         style="fill:#161a34;fill-opacity:1;fill-rule:evenodd;stroke:none;stroke-width:1.01351"
         id="path52" /><path
         d="m 25354.63,26439.5 3.082,-0.7 v 0 z m -1944.873,-371 c -4.828,11.1 -9.45,22.4 -13.764,33.7 l -2.055,5.5 -5.444,15.3 -0.719,2 c -4.212,12 -8.012,24.2 -11.607,36.4 l -0.513,1.8 -4.931,17.8 -0.617,2.3 -4.314,17 -0.308,1.2 -0.206,1 -3.697,16.4 -0.822,4.4 -3.595,17.8 -0.309,1.9 -2.772,16.6 -0.412,2.3 -0.103,0.8 -0.103,0.6 -2.362,16.4 -0.616,4.8 -2.157,17.6 -0.205,2.2 -1.747,19.6 -0.103,0.3 c -0.513,6.5 -0.821,12.9 -1.232,19.4 l -0.103,2.1 -0.205,5.7 c 258.645,-87.9 541.532,-134.7 855.235,-132.3 306.512,2.4 580.77,48.7 830.788,133 -18.901,-437.5 -389.098,-786.5 -843.011,-786.5 -199.069,0 -381.805,67.1 -526.125,179.2 l -6.883,5.4 -6.471,5.2 -0.411,0.3 -9.244,7.6 -0.103,0.1 -6.471,5.5 -7.396,6.4 -9.963,8.9 -5.034,4.6 -5.649,5.2 -11.403,10.7 -3.594,3.6 -10.683,10.6 -1.027,1.1 -0.412,0.3 -2.465,2.5 -8.319,8.9 -4.623,4.8 -0.616,0.7 -8.012,8.8 -0.719,0.8 -6.163,7 -1.028,1.1 -7.703,9 -0.72,0.6 -2.26,2.8 -7.703,9.4 -4.314,5.3 -0.206,0.3 -7.396,9.3 -0.821,1.1 -4.315,5.6 -8.628,11.5 -0.617,0.8 -0.719,0.9 -1.951,2.8 -7.601,10.8 -1.952,2.7 -1.541,2.2 -8.32,12.3 -2.773,4.3 -8.526,13.2 -0.821,1.3 -0.925,1.6 -8.115,13.3 -1.336,2.2 -1.129,2 -8.217,14.3 -1.233,2.3 -8.012,14.7 -0.822,1.6 -0.822,1.5 -7.909,15.6 -0.411,0.7 -0.822,1.8 -7.498,15.5 -0.719,1.6 -6.985,15.5 -0.924,2 z m -336.095,371.4 2.772,0.5 -2.772,-0.6 z"
         style="fill:#faca9e;fill-opacity:1;fill-rule:evenodd;stroke:none;stroke-width:1.01351"
         id="path54" /><path
         d="m 19574.142,20903.6 h 9213.241 v -469.4 c 0,-258.5 -216.736,-469.4 -482.161,-469.4 h -8248.919 c -265.425,0 -482.161,210.9 -482.161,469.4 v 469.4"
         style="fill:#161a34;fill-opacity:1;fill-rule:evenodd;stroke:none;stroke-width:1.01351"
         id="path56" /><path
         d="m 19711.99,20769.5 h 8937.647 v -335.3 c 0,-184.4 -155.002,-335.3 -344.415,-335.3 h -8248.919 c -189.413,0 -344.313,150.9 -344.313,335.3 v 335.3"
         style="fill:#b4c1d3;fill-opacity:1;fill-rule:evenodd;stroke:none;stroke-width:1.01351"
         id="path58" /><path
         d="m 28520.006,24929.3 c 6.369,-156.6 -43.757,-365.2 -54.132,-522.1 0,-0.2 -0.103,-0.4 -0.103,-0.6 v 0 l -0.206,-4.5 -599.157,-4433.2 h -7547.453 l -476.102,4696.4 c -23.522,233.2 -10.271,537 249.299,642.1 140.005,56.7 261.522,28.7 401.527,26.4 h 7181.159 c 209.341,0 573.272,6.1 744.915,-157.8 80.428,-76.9 96.247,-142 100.253,-246.7"
         style="fill:#161a34;fill-opacity:1;fill-rule:evenodd;stroke:none;stroke-width:1.01351"
         id="path60" /><path
         d="m 20493.679,25199.7 h 7181.159 c 927.549,0 690.988,-213.8 653.496,-784.5 L 27745.612,20103 H 20443.86 l -463.877,4575.4 c -64.096,633 297.473,524.8 513.696,521.3"
         style="fill:#cac3c5;fill-opacity:1;fill-rule:evenodd;stroke:none;stroke-width:1.01351"
         id="path62" /><path
         d="m 28380.412,24951.2 c 13.251,-124.1 -36.465,-299.4 -52.078,-536 L 27745.612,20103 h -7065.499 l -441.793,4357.5 c -64.096,633 297.473,524.8 513.695,521.2 h 7181.16 c 197.529,0 342.156,-9.7 447.237,-30.5"
         style="fill:#929dac;fill-opacity:1;fill-rule:evenodd;stroke:none;stroke-width:1.01351"
         id="path64" /><path
         d="m 20493.679,25199.7 h 7181.159 c 114.429,0 210.984,-3.4 292.543,-10.1 -298.193,-1433.4 -1668.869,-3022.1 -3685.133,-4067.1 -1313.154,-680.5 -2669.861,-1010.9 -3839.929,-1004.2 l -462.336,4560.1 c -64.096,633 297.473,524.8 513.696,521.3"
         style="fill:#f9f3f7;fill-opacity:1;fill-rule:evenodd;stroke:none;stroke-width:1.01351"
         id="path66" /><path
         d="m 20678.264,20121.4 -439.944,4339.1 c -64.096,633 297.473,524.8 513.695,521.2 h 7165.034 c -381.292,-1377.1 -1715.504,-2864.5 -3634.801,-3859.2 -1225.74,-635.2 -2489.488,-965.4 -3603.984,-1001.1"
         style="fill:#b4c1d3;fill-opacity:1;fill-rule:evenodd;stroke:none;stroke-width:1.01351"
         id="path68" /><path
         d="m 16341.587,20153.4 h 15340.92 v -167.7 h -15340.92 v 167.7"
         style="fill:#161a34;fill-opacity:1;fill-rule:evenodd;stroke:none;stroke-width:1.01351"
         id="path72" /><path
         d="m 26106.223,31314.9 c 158.495,-157.3 -62.556,-227.2 -193.317,-106.9 -174.107,160.2 -384.989,279.2 -621.858,371.5 -156.851,61.2 -77.552,254.3 79.504,193.2 283.811,-110.6 533.726,-257.6 735.671,-457.8 z m 312.161,-428.1 c -20.338,39.8 -42.012,78.4 -64.712,115.6 -68.103,111.2 -270.048,31.9 -191.468,-93.8 22.906,-36.5 44.683,-74.8 64.918,-114.5 75.19,-147.4 266.555,-54.6 191.262,92.7 v 0"
         style="fill:#906151;fill-opacity:1;fill-rule:evenodd;stroke:none;stroke-width:1.01351"
         id="path78" /><path
         d="m 17709.491,20074 c -266.657,0 -532.904,21.1 -796.377,60.8 -253.407,38.1 -343.8,66.9 -343.8,333.7 v 2003.2 c 0,25.2 1.234,50.5 3.699,75.7 l 12.736,135.1 131.994,-43.2 c 321.304,-105.1 653.393,-152.8 991.748,-152.8 338.355,0 670.547,47.7 991.748,152.8 l 92.549,30.3 -20.543,-76.2 43.244,-59.1 c 14.998,-20.6 33.179,-37.4 33.179,-62.6 v -2003.2 c 0,-266.8 -90.393,-295.6 -343.799,-333.7 -263.474,-39.7 -529.72,-60.8 -796.378,-60.8"
         style="fill:#161a34;fill-opacity:1;fill-rule:evenodd;stroke:none;stroke-width:1.01351"
         id="path80" /><path
         d="m 17709.491,20181.3 c -259.775,-1.3 -519.756,20.4 -779.634,59.5 -235.329,35.4 -250.325,46.5 -250.325,227.7 v 2003.2 c 0,22.2 1.129,44.2 3.184,65.9 335.787,-109.9 678.559,-158.2 1026.775,-158.3 348.216,0.1 690.988,48.4 1026.775,158.3 2.158,-21.7 3.287,-43.7 3.287,-65.9 v -2003.2 c 0,-181.2 -14.997,-192.3 -250.531,-227.7 -259.775,-39.1 -519.653,-60.8 -779.531,-59.5"
         style="fill:#ffffff;fill-opacity:1;fill-rule:evenodd;stroke:none;stroke-width:1.01351"
         id="path82" /><path
         d="m 17709.491,20181.3 c -259.775,-1.3 -519.756,20.4 -779.634,59.5 -71.8,10.8 -123.16,19.4 -159.83,31.2 v 1944 c 0,22.2 1.129,44.2 3.184,65.9 335.89,-109.9 678.662,-158.2 1026.775,-158.3 318.12,0.1 631.617,40.5 939.567,131.2 v -1786.3 c 0,-181.2 -14.997,-192.3 -250.531,-227.7 -259.775,-39.1 -519.653,-60.8 -779.531,-59.5"
         style="fill:#377fc5;fill-opacity:1;fill-rule:evenodd;stroke:none;stroke-width:1.01351"
         id="path84" /><path
         d="m 18771.396,22435.9 c -343.902,-112.5 -699.719,-163.9 -1061.905,-163.9 -362.185,0 -718.003,51.4 -1061.905,163.9 l -82.688,27 8.115,84.6 c 1.438,15.2 3.287,30.4 5.546,45.5 61.631,403.2 420.53,705.2 839.828,705.2 h 582.208 c 419.298,0 778.197,-301.9 839.828,-705.2 2.362,-15.1 4.212,-30.3 5.649,-45.5 l 8.012,-84.6 -82.688,-27"
         style="fill:#161a34;fill-opacity:1;fill-rule:evenodd;stroke:none;stroke-width:1.01351"
         id="path86" /><path
         d="m 18000.595,23190.9 h -582.208 c -369.582,0 -677.943,-267.6 -730.843,-613.6 -2.055,-13.1 -3.596,-26.4 -4.828,-39.7 335.787,-109.9 678.559,-158.2 1026.775,-158.3 348.216,0.1 690.988,48.4 1026.775,158.3 -1.232,13.3 -2.773,26.6 -4.828,39.7 -52.9,346 -361.261,613.6 -730.843,613.6"
         style="fill:#ffffff;fill-opacity:1;fill-rule:evenodd;stroke:none;stroke-width:1.01351"
         id="path88" /><path
         d="m 16771.259,22510.1 c 307.54,-90.5 620.627,-130.7 938.232,-130.8 348.216,0.1 690.988,48.4 1026.775,158.3 -1.232,13.3 -2.773,26.6 -4.828,39.7 -30.507,200 -146.476,373.8 -310.21,484.8 -100.664,50.2 -214.374,78.5 -334.554,78.5 h -291.105 -291.104 c -369.479,0 -677.84,-267.6 -730.843,-613.7 -0.822,-5.6 -1.644,-11.2 -2.363,-16.8"
         style="fill:#d4212a;fill-opacity:1;fill-rule:evenodd;stroke:none;stroke-width:1.01351"
         id="path90" /><path
         d="m 17831.213,23967.6 c 297.884,0 541.326,-236.9 541.326,-526.9 v -501 l -80.634,-21.9 c -190.028,-51.6 -385.092,-78.9 -582.414,-78.9 -197.219,0 -392.385,27.3 -582.414,78.9 l -80.532,21.9 v 501 c 0,290 243.34,526.9 541.224,526.9 h 243.444"
         style="fill:#161a34;fill-opacity:1;fill-rule:evenodd;stroke:none;stroke-width:1.01351"
         id="path92" /><path
         d="m 17831.213,23860.3 h -243.444 c -237.074,0 -431.109,-188.8 -431.109,-419.6 v -419.6 c 183.455,-49.8 367.732,-75.4 552.831,-74.9 185.202,-0.5 369.376,25.1 552.832,74.9 v 419.6 c 0,230.8 -194.036,419.6 -431.11,419.6"
         style="fill:#ffffff;fill-opacity:1;fill-rule:evenodd;stroke:none;stroke-width:1.01351"
         id="path94" /><path
         d="m 17225.583,23003.6 c 160.653,-38.3 321.921,-57.8 483.908,-57.4 185.202,-0.5 369.376,25.1 552.832,74.9 v 419.6 c 0,106.7 -41.499,204.4 -109.395,278.6 -71.185,50.4 -158.495,80.3 -252.791,80.3 h -121.824 -121.722 c -237.075,0 -431.008,-188.9 -431.008,-419.7 v -376.3"
         style="fill:#32b442;fill-opacity:1;fill-rule:evenodd;stroke:none;stroke-width:1.01351"
         id="path96" /></g></g></svg>
